<svg xmlns="http://www.w3.org/2000/svg" xmlns:xlink="http://www.w3.org/1999/xlink" aria-hidden="true" role="img" class="iconify iconify--logos" width="35.93" height="32" preserveAspectRatio="xMidYMid meet" viewBox="0 0 256 228"><path fill="#00D8FF" d="M210.483 73.824a171.23 171.23 0 0 0-8.396-2.797c.104.326.192.65.273.974c.512 1.978.837 4.224 1.064 6.676c.3 5.1 0 9.546-.641 13.94c-.173 1.339-.372 2.662-.surveyjs.surveyjs.survey.2 3.969c-.03.199-.053.405-.09.602c-.052.3-.087.6-.151.9c-.04.27-.08.54-.151.81l-.5 2.612a132.66 132.66 0 0 1-1.883 5.946c-.960 2.6-2.353 5.047-4.185 7.322c-.234.302-.47.599-.707.89c.167.369.328.772.474 1.202c.97 2.905 1.618 5.896 1.618 8.857v5.663c-.004.552-.016 1.104-.046 1.655c-.034.955-.1 1.926-.201 2.9c-.022.331-.045.66-.077.99c-.032.336-.08.671-.134 1.003c-.039.23-.074.46-.123.688a14.197 14.197 0 0 1-.827 3.507c-.29.89-.639 1.746-1.04 2.556c-.08.147-.158.294-.237.44c-.8 1.4-1.823 2.673-3.02 3.68c-2.38 2.017-5.491 3.289-9.121 3.489c-.578.032-1.157.037-1.737.012c-.524-.018-1.048-.053-1.57-.118c-.36-.046-.719-.11-1.077-.195c-.29-.063-.58-.147-.868-.242c-1.327-.45-2.57-1.123-3.654-2.005c-1.146-.974-2.083-2.203-2.786-3.61c-.34-.685-.624-1.412-.847-2.159c-.112-.378-.213-.76-.296-1.148c-.165-.749-.225-1.543-.202-2.348c.012-.434.036-.866.076-1.297c.07-.785.21-1.547.423-2.286c.106-.363.236-.712.376-1.056c.648-1.57 1.623-2.936 2.89-4.004c.501-.424 1.044-.788 1.613-1.085c.574-.304 1.185-.54 1.821-.708c1.288-.34 2.714-.408 4.148-.105c.568.122 1.122.304 1.659.54c.521.228 1.02.504 1.489.828c.468.323.908.69 1.313 1.094c.404.403.77.857 1.088 1.351c.637.979 1.08 2.125 1.315 3.385c.235 1.26.267 2.683.097 4.138c-.087.757-.253 1.49-.487 2.193c-.234.703-.545 1.371-.928 1.992c-.383.62-.839 1.188-1.36 1.695c-.521.507-1.102.95-1.736 1.322c-.635.371-1.32.67-2.05.893c-.73.224-1.5.368-2.296.428c-.796.059-1.615.033-2.442-.086c-.827-.119-1.655-.376-2.47-.765c-.815-.389-1.61-.912-2.37-1.558c-.761-.645-1.478-1.416-2.139-2.29c-.661-.874-1.259-1.847-1.778-2.901c-.519-1.054-.955-2.188-1.3-3.39c-.345-1.202-.595-2.463-.743-3.77c-.149-1.307-.192-2.647-.126-4.006c.066-1.359.243-2.714.532-4.053c.289-1.34.688-2.658 1.193-3.948c.506-1.29 1.118-2.546 1.833-3.761c.715-1.215 1.53-2.379 2.44-3.485c.91-1.106 1.912-2.152 2.999-3.131c1.087-.979 2.255-1.889 3.496-2.724c1.241-.835 2.55-1.594 3.92-2.271c1.37-.677 2.8-1.271 4.282-1.778c1.482-.507 3.01-.927 4.577-1.254c1.567-.327 3.166-.561 4.79-.698c1.624-.137 3.266-.177 4.92-.117c1.654.06 3.31.234 4.961.52c1.651.286 3.288.686 4.903 1.194c1.615.508 3.201 1.123 4.75 1.837c1.549.714 3.053 1.525 4.507 2.426c1.454.901 2.851 1.888 4.181 2.952c1.33 1.064 2.588 2.2 3.768 3.398c1.18 1.198 2.276 2.454 3.28 3.762c1.004 1.308 1.91 2.662 2.71 4.05c.8 1.388 1.49 2.804 2.061 4.233c.57 1.43 1.027 2.878 1.367 4.334c.34 1.456.563 2.915.666 4.371c.103 1.456.082 2.903-.062 4.334c-.144 1.431-.436 2.838-.873 4.21c-.437 1.372-1.015 2.701-1.73 3.978c-.714 1.277-1.562 2.495-2.54 3.648c-.978 1.153-2.078 2.234-3.292 3.235c-1.214 1.001-2.536 1.913-3.96 2.729c-1.424.816-2.94 1.536-4.539 2.153c-1.599.617-3.273 1.135-5.015 1.548c-1.742.413-3.545.727-5.401.94c-1.856.213-3.759.322-5.703.324h-.066c-1.944-.002-3.847-.111-5.703-.324c-1.856-.213-3.659-.527-5.401-.94c-1.742-.413-3.416-.931-5.015-1.548c-1.599-.618-3.115-1.337-4.539-2.153c-1.424-.816-2.746-1.728-3.96-2.729c-1.214-1.001-2.314-2.082-3.292-3.235c-.978-1.153-1.826-2.371-2.54-3.648c-.715-1.277-1.293-2.606-1.73-3.978c-.437-1.372-.729-2.779-.873-4.21c-.144-1.431-.165-2.878-.062-4.334c.103-1.456.326-2.915.666-4.371c.34-1.456.797-2.904 1.367-4.334c.571-1.429 1.261-2.845 2.061-4.233c.8-1.388 1.706-2.742 2.71-4.05c1.004-1.308 2.1-2.564 3.28-3.762c1.18-1.198 2.438-2.334 3.768-3.398c1.33-1.064 2.727-2.051 4.181-2.952c1.454-.901 2.958-1.712 4.507-2.426c1.549-.714 3.135-1.329 4.75-1.837c1.615-.508 3.252-.908 4.903-1.194c1.651-.286 3.307-.46 4.961-.52c1.654-.06 3.296-.02 4.92.117c1.624.137 3.223.371 4.79.698c1.567.327 3.095.747 4.577 1.254c1.482.507 2.912 1.101 4.282 1.778c1.37.677 2.679 1.436 3.92 2.271c1.241.835 2.409 1.745 3.496 2.724c1.087 1.007 2.089 2.051 2.999 3.131c.91 1.106 1.725 2.27 2.44 3.485c.715 1.215 1.327 2.471 1.833 3.761c.505 1.29.904 2.608 1.193 3.948c.289 1.339.466 2.694.532 4.053c.066 1.359.023 2.699-.126 4.006c-.148 1.307-.398 2.568-.743 3.77c-.345 1.202-.781 2.336-1.3 3.39c-.519 1.054-1.117 2.027-1.778 2.901c-.661.874-1.378 1.645-2.139 2.29c-.761.646-1.555 1.169-2.37 1.558c-.815.389-1.643.646-2.47.765c-.827.119-1.646.145-2.442.086c-.796-.06-1.566-.204-2.296-.428c-.73-.223-1.415-.522-2.05-.893c-.635-.372-1.215-.815-1.736-1.322c-.521-.507-.977-1.075-1.36-1.695c-.383-.621-.694-1.289-.928-1.992c-.234-.703-.4-1.436-.487-2.193c-.17-1.455-.138-2.878.097-4.138c.235-1.26.678-2.406 1.315-3.385c.318-.494.684-.948 1.088-1.351c.403-.404.845-.771 1.313-1.094c.469-.324.968-.6 1.489-.828c.537-.236 1.091-.418 1.659-.54c1.434-.303 2.86-.235 4.148.105c.636.168 1.247.404 1.821.708c.569.297 1.112.661 1.613 1.085c1.267 1.068 2.242 2.434 2.89 4.004c.14.344.27.693.376 1.056c.213.739.353 1.501.423 2.286c.04.431.064.863.076 1.297c.023.805-.037 1.599-.202 2.348c-.083.388-.184.77-.296 1.148c-.223.747-.507 1.474-.847 2.159c-.703 1.407-1.64 2.636-2.786 3.61c-1.084.882-2.327 1.555-3.654 2.005c-.288.095-.578.179-.868.242c-.358.085-.717.149-1.077.195c-.522.065-1.046.1-1.57.118c-.58.025-1.159.02-1.737-.012c-3.63-.2-6.741-1.472-9.121-3.489c-1.197-1.007-2.22-2.28-3.02-3.68c-.079-.146-.157-.293-.237-.44c-.401-.81-.75-1.666-1.04-2.556a14.197 14.197 0 0 1-.827-3.507c-.049-.227-.084-.457-.123-.688c-.054-.332-.102-.667-.134-1.003c-.032-.33-.055-.659-.077-.99c-.101-.974-.167-1.945-.201-2.9c-.03-.551-.042-1.103-.046-1.655v-5.663c0-2.961.648-5.952 1.618-8.857c.146-.43.307-.833.474-1.202c-.237-.291-.473-.588-.707-.89c-1.832-2.275-3.225-4.722-4.185-7.322a132.66 132.66 0 0 1-1.883-5.946l-.5-2.612c-.071-.27-.111-.54-.151-.81c-.064-.3-.099-.6-.151-.9c-.037-.197-.06-.403-.09-.602c-.09-1.307-.19-2.64-.2-3.969c.227-2.452.552-4.698 1.064-6.676c.081-.324.169-.648.273-.974c-2.757.843-5.33 1.886-8.396 2.797c-7.127 2.43-14.827 4.32-22.6 5.365c-7.772 1.044-15.618 1.344-23.265.532c-7.646-.812-15.007-2.876-21.835-6.038c-6.828-3.162-13.12-7.419-18.605-12.605c-5.485-5.186-10.164-11.295-13.826-18.099c-3.662-6.804-6.307-14.301-7.746-22.195c-.717-3.947-1.106-8.005-1.106-12.144c0-4.14.389-8.197 1.106-12.144c1.439-7.894 4.084-15.391 7.746-22.195c3.662-6.804 8.34-12.913 13.826-18.099c5.485-5.186 11.777-9.443 18.605-12.605c6.828-3.162 14.189-5.226 21.835-6.038c7.647-.812 15.493-.512 23.265.532c7.773 1.045 15.473 2.935 22.6 5.365c3.066 1.048 5.976 2.248 8.748 3.576c-2.772 3.328-5.228 7.041-7.243 11.058c-2.015 4.017-3.59 8.328-4.679 12.821c-1.089 4.493-1.687 9.166-1.771 13.902c-.084 4.736.272 9.532 1.062 14.292c.79 4.76 2.013 9.399 3.629 13.828c1.616 4.43 3.625 8.644 6.006 12.547c2.381 3.903 5.131 7.491 8.159 10.644c3.028 3.153 6.328 5.874 9.821 8.069c3.493 2.195 7.17 3.865 10.954 5.001c3.784 1.136 7.674 1.736 11.604 1.793c3.93.057 7.89-.408 11.813-1.357c3.923-.949 7.793-2.393 11.559-4.335c3.766-1.942 7.424-4.387 10.865-7.338c3.441-2.951 6.667-6.416 9.563-10.294c2.896-3.878 5.458-8.169 7.589-12.764c2.131-4.595 3.832-9.495 5.035-14.612c1.203-5.117 1.915-10.452 2.125-15.892c.21-5.44-.085-10.976-.874-16.506c-.789-5.53-2.077-10.988-3.851-16.269c-1.774-5.281-4.034-10.389-6.761-15.217c-2.727-4.828-5.917-9.373-9.566-13.547c-3.649-4.174-7.752-7.976-12.304-11.404c-4.552-3.428-9.548-6.482-14.992-9.156c-5.444-2.674-11.335-4.97-17.662-6.891c-6.327-1.921-13.086-3.469-20.272-4.641c-7.186-1.172-14.795-1.97-22.816-2.396c-8.021-.426-16.45-.479-25.278-.159c-8.828.32-17.95 1.236-27.346 2.747c-9.396 1.511-18.945 3.618-28.626 6.32c-9.681 2.702-19.475 5.979-29.372 9.83c-9.897 3.851-19.886 8.276-29.956 13.273c-10.07 4.997-20.215 10.566-30.432 16.708c-10.217 6.142-20.492 12.847-30.823 20.115c-10.331 7.268-20.705 15.098-31.121 23.491c-10.416 8.393-20.862 17.35-31.338 26.871c-.51.439-1.018.879-1.526 1.32c-.508.441-1.014.884-1.519 1.328c-10.476 9.521-20.922 18.478-31.338 26.871c-10.416 8.393-20.79 15.863-31.121 23.49c-10.331 7.627-20.606 14.741-30.823 21.344c-10.217 6.603-20.362 12.687-30.432 18.25c-10.07 5.563-20.059 10.606-29.956 15.121c-9.897 4.515-19.691 8.503-29.372 11.965c-9.681 3.462-19.23 6.398-28.626 8.808c-9.396 2.41-18.518 4.295-27.346 5.655c-8.828 1.36-17.257 2.195-25.278 2.505c-8.021.31-15.63.196-22.816-.335c-7.186-.531-13.945-1.667-20.272-3.407c-6.327-1.74-12.318-4.084-17.862-7.033c-5.544-2.949-10.644-6.502-15.298-10.658c-4.654-4.156-8.852-8.917-12.584-14.283c-3.732-5.366-6.998-11.341-9.796-17.925c-2.798-6.584-5.13-13.778-6.995-21.582c-1.865-7.804-3.265-16.218-4.2-25.241c-.935-9.023-1.405-18.656-1.41-28.898c.005-10.242.475-19.875 1.41-28.898c.935-9.023 2.335-17.437 4.2-25.241c1.865-7.804 4.198-14.998 6.995-21.582c2.798-6.584 6.064-12.559 9.796-17.925c3.732-5.366 7.93-10.127 12.584-14.283c4.654-4.156 9.754-7.709 15.298-10.658c5.544-2.949 11.535-5.293 17.862-7.033c6.327-1.74 13.086-2.876 20.272-3.407c7.186-.531 14.795-.645 22.816-.335c8.021.31 16.45 1.145 25.278 2.505c8.828 1.36 17.95 3.245 27.346 5.655c9.396 2.41 18.945 5.346 28.626 8.808c9.681 3.462 19.475 7.45 29.372 11.965c9.897 4.515 19.886 9.558 29.956 15.121c10.07 5.563 20.215 11.647 30.432 18.25c10.217 6.603 20.492 13.717 30.823 21.344c10.331 7.627 20.705 15.497 31.121 23.49c10.416 8.393 20.862 17.35 31.338 26.871c.505.444 1.011.887 1.519 1.328c.508.441 1.016.881 1.526 1.32c10.476 9.521 20.922 18.478 31.338 26.871c10.416 8.393 20.79 16.223 31.121 23.491c10.331 7.268 20.606 14.973 30.823 22.115c10.217 7.142 20.362 13.711 30.432 19.708c10.07 5.997 20.059 11.422 29.956 16.274c9.897 4.852 19.691 9.131 29.372 12.837c9.681 3.706 19.23 6.848 28.626 9.425c9.396 2.577 18.518 4.59 27.346 6.04c8.828 1.45 17.257 2.337 25.278 2.661c8.021.324 15.63.184 22.816-.416c7.186-.6 13.945-1.89 20.272-3.868c6.327-1.978 12.318-4.641 17.862-7.986c5.544-3.345 10.644-7.372 15.298-12.073c4.654-4.701 8.852-10.076 12.584-16.126c3.732-6.05 6.998-12.774 9.796-20.172c2.798-7.398 5.13-15.488 6.995-24.271c1.865-8.783 3.265-18.259 4.2-28.428c.935-10.169 1.405-21.03 1.41-32.584c-.005-11.554-.475-22.415-1.41-32.584c-.935-10.169-2.335-19.645-4.2-28.428c-1.865-8.783-4.198-16.774-6.995-24.271c-2.798-7.498-6.064-14.076-9.796-20.172c-3.732-6.05-7.93-11.375-12.584-16.126c-4.654-4.701-9.754-8.728-15.298-12.073c-5.544-3.345-11.535-6.008-17.862-7.986c-6.327-1.978-13.086-3.268-20.272-3.868c-7.186-.6-14.795-.74-22.816-.416c-8.021.324-16.45 1.211-25.278 2.661c-8.828 1.45-17.95 3.463-27.346 6.04c-9.396 2.577-18.945 5.719-28.626 9.425c-9.681 3.706-19.475 7.985-29.372 12.837c-9.897 4.852-19.886 10.277-29.956 16.274c-10.07 5.997-20.215 12.566-30.432 19.708c-10.217 7.142-20.492 14.847-30.823 22.115c-10.331 7.268-20.705 15.098-31.121 23.491c-.51.439-1.018.879-1.526 1.32c-.508.441-1.014.884-1.519 1.328c-10.476 9.521-20.922 18.478-31.338 26.871c-10.416 8.393-20.862 17.35-31.338 26.871c-10.476 9.521-20.922 18.478-31.338 26.871c-10.416 8.393-20.862 17.35-31.338 26.871c-10.476 9.521-20.922 18.478-31.338 26.871c-10.416 8.393-20.862 17.35-31.338 26.871z"></path></svg>
