<svg width="320" height="320" viewBox="0 0 320 320" fill="none" xmlns="http://www.w3.org/2000/svg">
  <!-- Calendar base -->
  <rect x="60" y="80" width="200" height="200" rx="12" fill="#f8f9fa" stroke="#cbd5e0" stroke-width="3"/>
  
  <!-- Calendar header -->
  <rect x="60" y="80" width="200" height="50" rx="12" fill="#1e3a5f"/>
  <rect x="60" y="105" width="200" height="25" fill="#1e3a5f"/>
  
  <!-- Rings -->
  <rect x="90" y="65" width="10" height="30" rx="5" fill="#4a5568"/>
  <rect x="135" y="65" width="10" height="30" rx="5" fill="#4a5568"/>
  <rect x="175" y="65" width="10" height="30" rx="5" fill="#4a5568"/>
  <rect x="220" y="65" width="10" height="30" rx="5" fill="#4a5568"/>
  
  <!-- Month text simulation -->
  <line x1="85" y1="100" x2="230" y2="100" stroke="#fff" stroke-width="4" stroke-linecap="round"/>
  
  <!-- Week days header -->
  <rect x="60" y="130" width="200" height="25" fill="#e2e8f0"/>
  
  <!-- Day cells grid -->
  <!-- Row 1 -->
  <rect x="70" y="165" width="24" height="24" rx="4" fill="#fff" stroke="#cbd5e0" stroke-width="1"/>
  <rect x="102" y="165" width="24" height="24" rx="4" fill="#fff" stroke="#cbd5e0" stroke-width="1"/>
  <rect x="134" y="165" width="24" height="24" rx="4" fill="#fff" stroke="#cbd5e0" stroke-width="1"/>
  <rect x="166" y="165" width="24" height="24" rx="4" fill="#fff" stroke="#cbd5e0" stroke-width="1"/>
  <rect x="198" y="165" width="24" height="24" rx="4" fill="#fff" stroke="#cbd5e0" stroke-width="1"/>
  <rect x="230" y="165" width="24" height="24" rx="4" fill="#fff" stroke="#cbd5e0" stroke-width="1"/>
  
  <!-- Row 2 -->
  <rect x="70" y="197" width="24" height="24" rx="4" fill="#fff" stroke="#cbd5e0" stroke-width="1"/>
  <rect x="102" y="197" width="24" height="24" rx="4" fill="#fff" stroke="#cbd5e0" stroke-width="1"/>
  <rect x="134" y="197" width="24" height="24" rx="4" fill="#d4af37" opacity="0.9"/>
  <rect x="166" y="197" width="24" height="24" rx="4" fill="#fff" stroke="#cbd5e0" stroke-width="1"/>
  <rect x="198" y="197" width="24" height="24" rx="4" fill="#fff" stroke="#cbd5e0" stroke-width="1"/>
  <rect x="230" y="197" width="24" height="24" rx="4" fill="#fff" stroke="#cbd5e0" stroke-width="1"/>
  
  <!-- Row 3 -->
  <rect x="70" y="229" width="24" height="24" rx="4" fill="#fff" stroke="#cbd5e0" stroke-width="1"/>
  <rect x="102" y="229" width="24" height="24" rx="4" fill="#28a745" opacity="0.8"/>
  <rect x="134" y="229" width="24" height="24" rx="4" fill="#fff" stroke="#cbd5e0" stroke-width="1"/>
  <rect x="166" y="229" width="24" height="24" rx="4" fill="#28a745" opacity="0.8"/>
  <rect x="198" y="229" width="24" height="24" rx="4" fill="#fff" stroke="#cbd5e0" stroke-width="1"/>
  <rect x="230" y="229" width="24" height="24" rx="4" fill="#fff" stroke="#cbd5e0" stroke-width="1"/>
  
  <!-- Row 4 -->
  <rect x="70" y="261" width="24" height="24" rx="4" fill="#fff" stroke="#cbd5e0" stroke-width="1"/>
  <rect x="102" y="261" width="24" height="24" rx="4" fill="#fff" stroke="#cbd5e0" stroke-width="1"/>
  <rect x="134" y="261" width="24" height="24" rx="4" fill="#17a2b8" opacity="0.8"/>
  <rect x="166" y="261" width="24" height="24" rx="4" fill="#fff" stroke="#cbd5e0" stroke-width="1"/>
  <rect x="198" y="261" width="24" height="24" rx="4" fill="#fff" stroke="#cbd5e0" stroke-width="1"/>
  <rect x="230" y="261" width="24" height="24" rx="4" fill="#fff" stroke="#cbd5e0" stroke-width="1"/>
  
  <!-- Notification badges -->
  <circle cx="90" cy="175" r="3" fill="#dc3545"/>
  <circle cx="146" cy="207" r="3" fill="#ffc107"/>
  <circle cx="114" cy="239" r="3" fill="#28a745"/>
</svg>
