<svg width="400" height="400" viewBox="0 0 400 400" fill="none" xmlns="http://www.w3.org/2000/svg">
  <!-- Background circles -->
  <circle cx="200" cy="200" r="180" fill="#1e3a5f" opacity="0.05"/>
  <circle cx="200" cy="200" r="140" fill="#1e3a5f" opacity="0.08"/>
  
  <!-- Graduation cap -->
  <path d="M200 120 L130 145 L200 170 L270 145 L200 120Z" fill="#d4af37"/>
  <path d="M200 170 L200 220 L180 210 L180 175 L200 170Z" fill="#c9a029"/>
  <rect x="268" y="145" width="4" height="60" fill="#d4af37"/>
  <circle cx="270" cy="140" r="8" fill="#dc3545"/>
  
  <!-- Book -->
  <rect x="150" y="230" width="100" height="80" rx="5" fill="#f8f9fa" stroke="#1e3a5f" stroke-width="3"/>
  <line x1="200" y1="230" x2="200" y2="310" stroke="#1e3a5f" stroke-width="3"/>
  <line x1="165" y1="250" x2="195" y2="250" stroke="#d4af37" stroke-width="2"/>
  <line x1="165" y1="265" x2="195" y2="265" stroke="#d4af37" stroke-width="2"/>
  <line x1="165" y1="280" x2="195" y2="280" stroke="#d4af37" stroke-width="2"/>
  <line x1="205" y1="250" x2="235" y2="250" stroke="#d4af37" stroke-width="2"/>
  <line x1="205" y1="265" x2="235" y2="265" stroke="#d4af37" stroke-width="2"/>
  <line x1="205" y1="280" x2="235" y2="280" stroke="#d4af37" stroke-width="2"/>
  
  <!-- Stars -->
  <circle cx="100" cy="120" r="12" fill="#ffc107" opacity="0.6"/>
  <circle cx="300" cy="160" r="15" fill="#ffc107" opacity="0.5"/>
  <circle cx="320" cy="280" r="10" fill="#28a745" opacity="0.5"/>
  <circle cx="80" cy="280" r="13" fill="#17a2b8" opacity="0.5"/>
  
  <!-- Sparkles -->
  <path d="M 150 100 L 155 110 L 145 110 Z" fill="#ffc107"/>
  <path d="M 280 100 L 285 110 L 275 110 Z" fill="#28a745"/>
  <path d="M 120 320 L 125 330 L 115 330 Z" fill="#17a2b8"/>
</svg>
